<svg id="visual" viewBox="0 0 900 600" width="900" height="600" xmlns="http://www.w3.org/2000/svg" xmlns:xlink="http://www.w3.org/1999/xlink" version="1.1"><rect x="0" y="0" width="900" height="600" fill="#002233"></rect><path d="M0 384L21.5 402.5C43 421 86 458 128.8 481.2C171.7 504.3 214.3 513.7 257.2 518.2C300 522.7 343 522.3 385.8 513.8C428.7 505.3 471.3 488.7 514.2 479.3C557 470 600 468 642.8 463.7C685.7 459.3 728.3 452.7 771.2 447.5C814 442.3 857 438.7 878.5 436.8L900 435L900 601L878.5 601C857 601 814 601 771.2 601C728.3 601 685.7 601 642.8 601C600 601 557 601 514.2 601C471.3 601 428.7 601 385.8 601C343 601 300 601 257.2 601C214.3 601 171.7 601 128.8 601C86 601 43 601 21.5 601L0 601Z" fill="#0066FF" stroke-linecap="round" stroke-linejoin="miter"></path></svg>